{
 "asset": {
  "version": "2.0"
 },
 "scene": 0,
 "scenes": [
  {
   "nodes": [
    0
   ]
  }
 ],
 "nodes": [
  {
   "name": "Root",
   "children": [
    1
   ]
  },
  {
   "name": "Cube",
   "mesh": 0
  }
 ],
 "meshes": [
  {
   "name": "CubeMesh",
   "primitives": [
    {
     "attributes": {
      "POSITION": 3
     },
     "material": 0
    }
   ]
  }
 ],
 "materials": [
  {
   "name": "Mat",
   "pbrMetallicRoughness": {
    "baseColorFactor": [
     1,
     0,
     0,
     1
    ]
   }
  }
 ],
 "buffers": [
  {
   "byteLength": 100,
   "uri": "data:application/octet-stream;base64,"
  }
 ],
 "bufferViews": [
  {
   "buffer": 0,
   "byteOffset": 0,
   "byteLength": 8
  },
  {
   "buffer": 0,
   "byteOffset": 8,
   "byteLength": 24
  },
  {
   "buffer": 0,
   "byteOffset": 32,
   "byteLength": 32
  },
  {
   "buffer": 0,
   "byteOffset": 64,
   "byteLength": 36
  }
 ],
 "accessors": [
  {
   "bufferView": 0,
   "componentType": 5126,
   "count": 2,
   "type": "SCALAR",
   "min": [
    0.0
   ],
   "max": [
    1.0
   ]
  },
  {
   "bufferView": 1,
   "componentType": 5126,
   "count": 2,
   "type": "VEC3"
  },
  {
   "bufferView": 2,
   "componentType": 5126,
   "count": 2,
   "type": "VEC4"
  },
  {
   "bufferView": 3,
   "componentType": 5126,
   "count": 3,
   "type": "VEC3",
   "min": [
    0,
    0,
    0
   ],
   "max": [
    1,
    1,
    0
   ]
  }
 ],
 "animations": [
  {
   "name": "Move",
   "samplers": [
    {
     "input": 0,
     "output": 1,
     "interpolation": "LINEAR"
    },
    {
     "input": 0,
     "output": 2,
     "interpolation": "LINEAR"
    }
   ],
   "channels": [
    {
     "sampler": 0,
     "target": {
      "node": 1,
      "path": "translation"
     }
    },
    {
     "sampler": 1,
     "target": {
      "node": 1,
      "path": "rotation"
     }
    }
   ]
  }
 ]
}